# Blender v2.83.0 OBJ File: 'cube.blend'
# www.blender.org
mtllib cubev2.mtl
o Cube_Cube.001
v -0.500000 -0.500000 0.500000
v -0.500000 0.500000 0.500000
v -0.500000 -0.500000 -0.500000
v -0.500000 0.500000 -0.500000
v 0.500000 -0.500000 0.500000
v 0.500000 0.500000 0.500000
v 0.500000 -0.500000 -0.500000
v 0.500000 0.500000 -0.500000
vt 0.312821 0.919253
vt 0.319991 0.919253
vt 0.319991 0.926423
vt 0.312821 0.926423
vt 0.319991 0.933594
vt 0.312821 0.933594
vt 0.319991 0.940764
vt 0.312821 0.940764
vt 0.319991 0.947934
vt 0.312821 0.947934
vt 0.305651 0.933594
vt 0.305651 0.940764
vt 0.327162 0.933594
vt 0.327162 0.940764
vn -1.0000 0.0000 0.0000
vn 0.0000 0.0000 -1.0000
vn 1.0000 0.0000 0.0000
vn 0.0000 0.0000 1.0000
vn 0.0000 -1.0000 0.0000
vn 0.0000 1.0000 0.0000
usemtl None
s off
f 1/1/1 2/2/1 4/3/1 3/4/1
f 3/4/2 4/3/2 8/5/2 7/6/2
f 7/6/3 8/5/3 6/7/3 5/8/3
f 5/8/4 6/7/4 2/9/4 1/10/4
f 3/11/5 7/6/5 5/8/5 1/12/5
f 8/5/6 4/13/6 2/14/6 6/7/6
