# Blender v2.83.0 OBJ File: 'cylinder.blend'
# www.blender.org
mtllib cylinderv3-acceptable.mtl
o Cylinder
v 0.000000 0.033411 -1.500000
v 0.000000 8.033411 -1.500000
v 0.574025 0.033411 -1.385819
v 0.574025 8.033411 -1.385819
v 1.060660 0.033411 -1.060660
v 1.060660 8.033411 -1.060660
v 1.385819 0.033411 -0.574025
v 1.385819 8.033411 -0.574025
v 1.500000 0.033411 0.000000
v 1.500000 8.033411 0.000000
v 1.385819 0.033411 0.574025
v 1.385819 8.033411 0.574025
v 1.060660 0.033411 1.060660
v 1.060660 8.033411 1.060660
v 0.574025 0.033411 1.385819
v 0.574025 8.033411 1.385819
v 0.000000 0.033411 1.500000
v 0.000000 8.033411 1.500000
v -0.574025 0.033411 1.385819
v -0.574025 8.033411 1.385819
v -1.060660 0.033411 1.060660
v -1.060660 8.033411 1.060660
v -1.385819 0.033411 0.574025
v -1.385819 8.033411 0.574025
v -1.500000 0.033411 -0.000000
v -1.500000 8.033411 -0.000000
v -1.385819 0.033411 -0.574025
v -1.385819 8.033411 -0.574025
v -1.060660 0.033411 -1.060660
v -1.060660 8.033411 -1.060660
v -0.574024 0.033411 -1.385820
v -0.574024 8.033411 -1.385820
vt 0.324248 0.945312
vt 0.324248 0.947216
vt 0.324010 0.947216
vt 0.324010 0.945312
vt 0.323772 0.947216
vt 0.323772 0.945312
vt 0.323534 0.947216
vt 0.323534 0.945312
vt 0.323295 0.947216
vt 0.323295 0.945312
vt 0.323057 0.947216
vt 0.323057 0.945312
vt 0.322819 0.947216
vt 0.322819 0.945312
vt 0.322581 0.947216
vt 0.322581 0.945312
vt 0.322343 0.947216
vt 0.322343 0.945312
vt 0.322105 0.947216
vt 0.322105 0.945312
vt 0.321867 0.947216
vt 0.321867 0.945312
vt 0.321629 0.947216
vt 0.321629 0.945312
vt 0.321391 0.947216
vt 0.321391 0.945312
vt 0.321153 0.947216
vt 0.321153 0.945312
vt 0.320915 0.947216
vt 0.320915 0.945312
vt 0.321741 0.945204
vt 0.321391 0.945274
vt 0.321041 0.945204
vt 0.320745 0.945006
vt 0.320546 0.944709
vt 0.320477 0.944360
vt 0.320546 0.944010
vt 0.320745 0.943713
vt 0.321041 0.943515
vt 0.321391 0.943445
vt 0.321741 0.943515
vt 0.322037 0.943713
vt 0.322236 0.944010
vt 0.322305 0.944360
vt 0.322236 0.944709
vt 0.322037 0.945006
vt 0.320677 0.947216
vt 0.320677 0.945312
vt 0.320439 0.947216
vt 0.320439 0.945312
vt 0.323295 0.945274
vt 0.323645 0.945204
vt 0.323942 0.945006
vt 0.324140 0.944709
vt 0.324210 0.944360
vt 0.324140 0.944010
vt 0.323942 0.943713
vt 0.323645 0.943515
vt 0.323295 0.943445
vt 0.322946 0.943515
vt 0.322649 0.943713
vt 0.322451 0.944010
vt 0.322381 0.944360
vt 0.322451 0.944709
vt 0.322649 0.945006
vt 0.322946 0.945204
vn 0.0000 -0.6657 -0.7462
vn 0.0000 0.6657 -0.7462
vn 0.2855 0.6657 -0.6894
vn 0.2855 -0.6657 -0.6894
vn 0.5276 0.6657 -0.5276
vn 0.5276 -0.6657 -0.5276
vn 0.6894 0.6657 -0.2855
vn 0.6894 -0.6657 -0.2855
vn 0.7462 0.6657 0.0000
vn 0.7462 -0.6657 0.0000
vn 0.6894 0.6657 0.2855
vn 0.6894 -0.6657 0.2855
vn 0.5276 0.6657 0.5276
vn 0.5276 -0.6657 0.5276
vn 0.2855 0.6657 0.6894
vn 0.2855 -0.6657 0.6894
vn 0.0000 0.6657 0.7462
vn 0.0000 -0.6657 0.7462
vn -0.2855 0.6657 0.6894
vn -0.2855 -0.6657 0.6894
vn -0.5276 0.6657 0.5276
vn -0.5276 -0.6657 0.5276
vn -0.6894 0.6657 0.2855
vn -0.6894 -0.6657 0.2855
vn -0.7462 0.6657 0.0000
vn -0.7462 -0.6657 0.0000
vn -0.6894 0.6657 -0.2855
vn -0.6894 -0.6657 -0.2855
vn -0.5276 0.6657 -0.5276
vn -0.5276 -0.6657 -0.5276
vn -0.2855 0.6657 -0.6894
vn -0.2855 -0.6657 -0.6894
usemtl None
s 1
f 1/1/1 2/2/2 4/3/3 3/4/4
f 3/4/4 4/3/3 6/5/5 5/6/6
f 5/6/6 6/5/5 8/7/7 7/8/8
f 7/8/8 8/7/7 10/9/9 9/10/10
f 9/10/10 10/9/9 12/11/11 11/12/12
f 11/12/12 12/11/11 14/13/13 13/14/14
f 13/14/14 14/13/13 16/15/15 15/16/16
f 15/16/16 16/15/15 18/17/17 17/18/18
f 17/18/18 18/17/17 20/19/19 19/20/20
f 19/20/20 20/19/19 22/21/21 21/22/22
f 21/22/22 22/21/21 24/23/23 23/24/24
f 23/24/24 24/23/23 26/25/25 25/26/26
f 25/26/26 26/25/25 28/27/27 27/28/28
f 27/28/28 28/27/27 30/29/29 29/30/30
f 4/31/3 2/32/2 32/33/31 30/34/29 28/35/27 26/36/25 24/37/23 22/38/21 20/39/19 18/40/17 16/41/15 14/42/13 12/43/11 10/44/9 8/45/7 6/46/5
f 29/30/30 30/29/29 32/47/31 31/48/32
f 31/48/32 32/47/31 2/49/2 1/50/1
f 1/51/1 3/52/4 5/53/6 7/54/8 9/55/10 11/56/12 13/57/14 15/58/16 17/59/18 19/60/20 21/61/22 23/62/24 25/63/26 27/64/28 29/65/30 31/66/32
