# Blender v2.83.0 OBJ File: 'cylinderwithhole -flat.blend'
# www.blender.org
mtllib cylinderwithhole -flatv5.mtl
o Cylinder.002
v 0.000000 -0.757025 -1.700001
v 0.581434 -0.757025 -1.597479
v 0.581434 -0.003024 -1.597478
v 0.000000 -0.003024 -1.700000
v 1.092740 -0.757025 -1.302276
v 1.092740 -0.003024 -1.302275
v 1.472243 -0.757025 -0.850001
v 1.472243 -0.003024 -0.850000
v 1.674174 -0.757025 -0.295202
v 1.674174 -0.003024 -0.295202
v 1.674174 -0.757025 0.295201
v 1.674174 -0.003024 0.295202
v 1.472243 -0.757025 0.849999
v 1.472243 -0.003024 0.850000
v 1.092740 -0.757025 1.302274
v 1.092740 -0.003024 1.302275
v 0.581434 -0.757025 1.597477
v 0.581434 -0.003024 1.597478
v 0.000000 -0.757025 1.699999
v 0.000000 -0.003024 1.700000
v -0.581434 -0.757025 1.597477
v -0.581434 -0.003024 1.597478
v -1.092738 -0.757025 1.302276
v -1.092738 -0.003024 1.302276
v -1.472242 -0.757025 0.849999
v -1.472242 -0.003024 0.850000
v -1.674174 -0.757025 0.295203
v -1.674174 -0.003024 0.295203
v -1.674174 -0.757025 -0.295202
v -1.674174 -0.003024 -0.295202
v -1.472244 -0.757025 -0.849999
v -1.472244 -0.003024 -0.849998
v -1.092739 -0.757025 -1.302276
v -1.092739 -0.003024 -1.302275
v -0.581436 -0.757025 -1.597477
v -0.581436 -0.003024 -1.597476
v 0.000000 -26.567772 -1.700001
v 0.581434 -26.567772 -1.597479
v 1.092740 -26.567772 -1.302276
v 1.472243 -26.567772 -0.850001
v 1.674174 -26.567772 -0.295203
v 1.674174 -26.567772 0.295201
v 1.472243 -26.567772 0.849999
v 1.092740 -26.567772 1.302274
v 0.581434 -26.567772 1.597477
v 0.000000 -26.567772 1.699999
v -0.581434 -26.567772 1.597477
v -1.092738 -26.567772 1.302275
v -1.472242 -26.567772 0.849999
v -1.674174 -26.567772 0.295202
v -1.674174 -26.567772 -0.295203
v -1.472244 -26.567772 -0.849999
v -1.092739 -26.567772 -1.302276
v -0.581436 -26.567772 -1.597478
vt 0.801740 0.918929
vt 0.808137 0.915574
vt 0.810650 0.922757
vt 0.806561 0.924808
vt 0.815242 0.914584
vt 0.815290 0.922302
vt 0.822257 0.915782
vt 0.819926 0.922973
vt 0.828552 0.919232
vt 0.823916 0.925208
vt 0.833300 0.924687
vt 0.826833 0.928696
vt 0.835849 0.931503
vt 0.828340 0.933005
vt 0.835849 0.938814
vt 0.828246 0.937599
vt 0.833295 0.945695
vt 0.826552 0.941906
vt 0.828507 0.951285
vt 0.823461 0.945390
vt 0.822079 0.954898
vt 0.819346 0.947620
vt 0.814798 0.956097
vt 0.814706 0.948322
vt 0.807548 0.954743
vt 0.810103 0.947410
vt 0.801204 0.951002
vt 0.806095 0.944995
vt 0.796535 0.945329
vt 0.803165 0.941376
vt 0.794112 0.938414
vt 0.801668 0.936999
vt 0.794235 0.931110
vt 0.801780 0.932404
vt 0.796892 0.924330
vt 0.803483 0.928165
vt -0.000000 0.500000
vt 0.055555 0.500000
vt 0.111111 0.500000
vt 0.166666 0.500000
vt 0.222222 0.500000
vt 0.277778 0.500000
vt 0.333333 0.500000
vt 0.388889 0.500000
vt 0.444444 0.500000
vt 0.500000 0.500000
vt 0.555555 0.500000
vt 0.611111 0.500000
vt 0.666667 0.500000
vt 0.722222 0.500000
vt 0.777778 0.500000
vt 0.833333 0.500000
vt 0.888889 0.500000
vt 0.944444 0.500000
vt 0.950428 0.940393
vt 0.945634 0.943168
vt 0.940531 0.928166
vt 0.940494 0.928030
vt 0.950406 0.915884
vt 0.953984 0.920149
vt 0.940032 0.927822
vt 0.939914 0.927886
vt 0.926323 0.920276
vt 0.929851 0.916022
vt 0.939815 0.928374
vt 0.939894 0.928482
vt 0.934734 0.943187
vt 0.929939 0.940432
vt 0.940363 0.928544
vt 0.940462 0.928439
vt 0.940184 0.944138
vt 0.940520 0.928308
vt 0.955885 0.925374
vt 0.955885 0.930929
vt 0.940299 0.927838
vt 0.940166 0.927806
vt 0.934626 0.913220
vt 0.940083 0.912215
vt 0.939781 0.928112
vt 0.939776 0.928246
vt 0.926377 0.936206
vt 0.924472 0.931014
vt 0.940123 0.928601
vt 0.940249 0.928594
vt 0.953989 0.936144
vt 0.940413 0.927916
vt 0.945564 0.913137
vt 0.939829 0.927988
vt 0.924454 0.925481
vt 0.940000 0.928562
vn -0.1736 -0.0000 0.9848
vn -0.5000 -0.0000 0.8660
vn -0.7660 -0.0000 0.6428
vn -0.9397 -0.0000 0.3420
vn -1.0000 0.0000 0.0000
vn -0.9397 0.0000 -0.3420
vn -0.7660 0.0000 -0.6428
vn -0.5000 0.0000 -0.8660
vn -0.1736 0.0000 -0.9848
vn 0.1736 0.0000 -0.9848
vn 0.5000 0.0000 -0.8660
vn 0.7660 0.0000 -0.6428
vn 0.9397 0.0000 -0.3420
vn 1.0000 0.0000 0.0000
vn 0.9397 0.0000 0.3420
vn 0.7660 -0.0000 0.6428
vn 0.5000 -0.0000 0.8660
vn 0.1736 -0.0000 0.9848
vn 0.0000 1.0000 0.0000
vn -0.8660 -0.0000 0.5000
vn -0.6428 -0.0000 0.7660
vn -0.3420 0.0000 -0.9397
vn -0.6428 0.0000 -0.7660
vn 0.9848 0.0000 -0.1736
vn 0.8660 0.0000 -0.5000
vn 0.0000 -0.0000 1.0000
vn 0.3420 -0.0000 0.9397
vn -0.3420 -0.0000 0.9397
vn -0.8660 0.0000 -0.5000
vn -0.9848 0.0000 -0.1736
vn 0.6428 0.0000 -0.7660
vn 0.3420 0.0000 -0.9397
vn 0.6428 -0.0000 0.7660
vn 0.8660 -0.0000 0.5000
vn -0.9848 0.0000 0.1736
vn -0.0000 0.0000 -1.0000
vn 0.9848 -0.0000 0.1736
usemtl None.001
s off
f 1/1/1 2/2/1 3/3/1 4/4/1
f 2/2/2 5/5/2 6/6/2 3/3/2
f 5/5/3 7/7/3 8/8/3 6/6/3
f 7/7/4 9/9/4 10/10/4 8/8/4
f 9/9/5 11/11/5 12/12/5 10/10/5
f 11/11/6 13/13/6 14/14/6 12/12/6
f 13/13/7 15/15/7 16/16/7 14/14/7
f 15/15/8 17/17/8 18/18/8 16/16/8
f 17/17/9 19/19/9 20/20/9 18/18/9
f 19/19/10 21/21/10 22/22/10 20/20/10
f 21/21/11 23/23/11 24/24/11 22/22/11
f 23/23/12 25/25/12 26/26/12 24/24/12
f 25/25/13 27/27/13 28/28/13 26/26/13
f 27/27/14 29/29/14 30/30/14 28/28/14
f 29/29/15 31/31/15 32/32/15 30/30/15
f 31/31/16 33/33/16 34/34/16 32/32/16
f 33/33/17 35/35/17 36/36/17 34/34/17
f 35/35/18 1/1/18 4/4/18 36/36/18
f 37/37/19 54/38/19 53/39/19 52/40/19 51/41/19 50/42/19 49/43/19 48/44/19 47/45/19 46/46/19 45/47/19 44/48/19 43/49/19 42/50/19 41/51/19 40/52/19 39/53/19 38/54/19
s 1
f 7/55/20 5/56/21 39/57/21 40/58/20
f 17/59/22 15/60/23 44/61/23 45/62/22
f 27/63/24 25/64/25 49/65/25 50/66/24
f 1/67/26 35/68/27 54/69/27 37/70/26
f 2/71/28 1/67/26 37/70/26 38/72/28
f 13/73/29 11/74/30 42/75/30 43/76/29
f 23/77/31 21/78/32 47/79/32 48/80/31
f 33/81/33 31/82/34 52/83/34 53/84/33
f 9/85/35 7/55/20 40/58/20 41/86/35
f 19/87/36 17/59/22 45/62/22 46/88/36
f 29/89/37 27/63/24 50/66/24 51/90/37
f 5/56/21 2/71/28 38/72/28 39/57/21
f 15/60/23 13/73/29 43/76/29 44/61/23
f 25/64/25 23/77/31 48/80/31 49/65/25
f 35/68/27 33/81/33 53/84/33 54/69/27
f 11/74/30 9/85/35 41/86/35 42/75/30
f 21/78/32 19/87/36 46/88/36 47/79/32
f 31/82/34 29/89/37 51/90/37 52/83/34
