# Blender v2.83.0 OBJ File: 'cylinderwithhole.blend'
# www.blender.org
mtllib cylinderwithholeunflipped.mtl
o Cylinder
v 0.000000 -2.003025 -1.000000
v 0.000000 -0.003024 -1.000000
v 0.342020 -2.003025 -0.939693
v 0.342020 -0.003024 -0.939693
v 0.642788 -2.003025 -0.766044
v 0.642788 -0.003024 -0.766044
v 0.866025 -2.003025 -0.500000
v 0.866025 -0.003024 -0.500000
v 0.984808 -2.003025 -0.173648
v 0.984808 -0.003024 -0.173648
v 0.984808 -2.003025 0.173648
v 0.984808 -0.003024 0.173648
v 0.866025 -2.003025 0.500000
v 0.866025 -0.003024 0.500000
v 0.642788 -2.003025 0.766044
v 0.642788 -0.003024 0.766044
v 0.342020 -2.003025 0.939693
v 0.342020 -0.003024 0.939693
v 0.000000 -2.003025 1.000000
v 0.000000 -0.003024 1.000000
v -0.342020 -2.003025 0.939693
v -0.342020 -0.003024 0.939693
v -0.642787 -2.003025 0.766045
v -0.642787 -0.003024 0.766045
v -0.866025 -2.003025 0.500000
v -0.866025 -0.003024 0.500000
v -0.984808 -2.003025 0.173649
v -0.984808 -0.003024 0.173649
v -0.984808 -2.003025 -0.173648
v -0.984808 -0.003024 -0.173648
v -0.866026 -2.003025 -0.499999
v -0.866026 -0.003024 -0.499999
v -0.642788 -2.003025 -0.766044
v -0.642788 -0.003024 -0.766044
v -0.342021 -2.003025 -0.939692
v -0.342021 -0.003024 -0.939692
vt 1.000000 0.500000
vt 1.000000 1.000000
vt 0.944444 1.000000
vt 0.944444 0.500000
vt 0.888889 1.000000
vt 0.888889 0.500000
vt 0.833333 1.000000
vt 0.833333 0.500000
vt 0.777778 1.000000
vt 0.777778 0.500000
vt 0.722222 1.000000
vt 0.722222 0.500000
vt 0.666667 1.000000
vt 0.666667 0.500000
vt 0.611111 1.000000
vt 0.611111 0.500000
vt 0.555555 1.000000
vt 0.555555 0.500000
vt 0.500000 1.000000
vt 0.500000 0.500000
vt 0.444444 1.000000
vt 0.444444 0.500000
vt 0.388889 1.000000
vt 0.388889 0.500000
vt 0.333333 1.000000
vt 0.333333 0.500000
vt 0.277778 1.000000
vt 0.277778 0.500000
vt 0.222222 1.000000
vt 0.222222 0.500000
vt 0.166666 1.000000
vt 0.166666 0.500000
vt 0.111111 1.000000
vt 0.111111 0.500000
vt 0.055555 1.000000
vt 0.055555 0.500000
vt -0.000000 1.000000
vt -0.000000 0.500000
vn 0.1736 0.0000 -0.9848
vn 0.5000 0.0000 -0.8660
vn 0.7660 0.0000 -0.6428
vn 0.9397 0.0000 -0.3420
vn 1.0000 0.0000 0.0000
vn 0.9397 0.0000 0.3420
vn 0.7660 0.0000 0.6428
vn 0.5000 0.0000 0.8660
vn 0.1736 0.0000 0.9848
vn -0.1736 0.0000 0.9848
vn -0.5000 0.0000 0.8660
vn -0.7660 0.0000 0.6428
vn -0.9397 0.0000 0.3420
vn -1.0000 0.0000 0.0000
vn -0.9397 0.0000 -0.3420
vn -0.7660 0.0000 -0.6428
vn -0.5000 0.0000 -0.8660
vn -0.1736 0.0000 -0.9848
vn 0.0000 1.0000 -0.0000
vn 0.0000 -1.0000 0.0000
usemtl None
s off
f 1/1/1 2/2/1 4/3/1 3/4/1
f 3/4/2 4/3/2 6/5/2 5/6/2
f 5/6/3 6/5/3 8/7/3 7/8/3
f 7/8/4 8/7/4 10/9/4 9/10/4
f 9/10/5 10/9/5 12/11/5 11/12/5
f 11/12/6 12/11/6 14/13/6 13/14/6
f 13/14/7 14/13/7 16/15/7 15/16/7
f 15/16/8 16/15/8 18/17/8 17/18/8
f 17/18/9 18/17/9 20/19/9 19/20/9
f 19/20/10 20/19/10 22/21/10 21/22/10
f 21/22/11 22/21/11 24/23/11 23/24/11
f 23/24/12 24/23/12 26/25/12 25/26/12
f 25/26/13 26/25/13 28/27/13 27/28/13
f 27/28/14 28/27/14 30/29/14 29/30/14
f 29/30/15 30/29/15 32/31/15 31/32/15
f 31/32/16 32/31/16 34/33/16 33/34/16
f 33/34/17 34/33/17 36/35/17 35/36/17
f 35/36/18 36/35/18 2/37/18 1/38/18
f 4/3/19 2/37/19 36/35/19 34/33/19 32/31/19 30/29/19 28/27/19 26/25/19 24/23/19 22/21/19 20/19/19 18/17/19 16/15/19 14/13/19 12/11/19 10/9/19 8/7/19 6/5/19
f 1/38/20 3/4/20 5/6/20 7/8/20 9/10/20 11/12/20 13/14/20 15/16/20 17/18/20 19/20/20 21/22/20 23/24/20 25/26/20 27/28/20 29/30/20 31/32/20 33/34/20 35/36/20
